<svg width="640" height="512" xmlns="http://www.w3.org/2000/svg" class="svg-inline--fa fa-user-clock fa-w-20">

 <g>
  <title>Layer 1</title>
  <path id="svg_2" opacity="0.4" d="m495,224a144,144 0 1 0 144,144a143.91,143.91 0 0 0 -144,-144zm64,150.3a9.77,9.77 0 0 1 -9.7,9.7l-60.6,0a9.77,9.77 0 0 1 -9.7,-9.7l0,-76.6a9.77,9.77 0 0 1 9.7,-9.7l12.6,0a9.77,9.77 0 0 1 9.7,9.7l0,54.3l38.3,0a9.77,9.77 0 0 1 9.7,9.7l0,12.6z" fill="#002f5e" class="fa-secondary"/>
  <path id="svg_3" d="m224,256a128,128 0 1 0 -128,-128a128,128 0 0 0 128,128zm96,112a175.38,175.38 0 0 1 18.2,-77.5a133.25,133.25 0 0 0 -24.6,-2.5l-16.7,0a174.08,174.08 0 0 1 -145.8,0l-16.7,0a134.43,134.43 0 0 0 -134.4,134.4l0,41.6a48,48 0 0 0 48,48l347.1,0c-45.3,-31.9 -75.1,-84.5 -75.1,-144z" fill="#003f7f" class="fa-primary"/>
 </g>
</svg>